<?xml version="1.0"?>
<svg xmlns="http://www.w3.org/2000/svg" width="512" height="512" viewBox="0 0 512 512"><g><rect x="152" y="168" width="208" height="88" fill="#ffdaaa"/><g><g><g><g><path d="M152,184v40a103.8,103.8,0,0,0,7.4,38.6Z" fill="#ffdaaa"/><path d="M360,184v40a103.8,103.8,0,0,1-7.4,38.6Z" fill="#ffdaaa"/><path d="M408,364.21V496H104V364.21l43.31-9.12a112.02,112.02,0,0,0,217.38,0Z" fill="#003f8a"/><path d="M95.19,366.06l8.81-1.85V496H16l18.75-73.63A80.021,80.021,0,0,1,95.19,366.06Z" fill="#ffdaaa"/><path d="M333.09,348.44C302.27,379.28,256,400,256,400a329.833,329.833,0,0,1-52-30.46,208.749,208.749,0,0,1-25.09-21.1Z" fill="#ffdaaa"/><path d="M496,496H408V364.21l8.81,1.85a80.021,80.021,0,0,1,60.44,56.31Z" fill="#ffdaaa"/><path d="M140,168h12a0,0,0,0,1,0,0v64a0,0,0,0,1,0,0H140a20,20,0,0,1-20-20V188A20,20,0,0,1,140,168Z" fill="#ffdaaa"/><path d="M380,168h12a0,0,0,0,1,0,0v64a0,0,0,0,1,0,0H380a20,20,0,0,1-20-20V188a20,20,0,0,1,20-20Z" transform="translate(752 400) rotate(180)" fill="#ffdaaa"/></g><circle cx="208" cy="200" r="16" fill="#ffdaaa"/><circle cx="304" cy="200" r="16" fill="#ffdaaa"/><path d="M256,16h0A112,112,0,0,1,368,128v40a0,0,0,0,1,0,0H144a0,0,0,0,1,0,0V128A112,112,0,0,1,256,16Z" fill="#ff5023"/><path d="M208,136h64a16,16,0,0,1,16,16v0a16,16,0,0,1-16,16H208a0,0,0,0,1,0,0V136a0,0,0,0,1,0,0Z" fill="#2d2d30"/><path d="M240,104h0a32,32,0,0,1,32,32v0a0,0,0,0,1,0,0H208a0,0,0,0,1,0,0v0a32,32,0,0,1,32-32Z" fill="#ffdaaa"/><path d="M368,128h72a40,40,0,0,1,40,40v0a0,0,0,0,1,0,0H368a0,0,0,0,1,0,0V128A0,0,0,0,1,368,128Z" fill="#ab2300"/></g><path d="M360,291.48V296c0,19.13-11.53,37.05-26.91,52.44C302.27,379.28,256,400,256,400a329.833,329.833,0,0,1-52-30.46,208.749,208.749,0,0,1-25.09-21.1C163.53,333.05,152,315.13,152,296v-4.52a59.988,59.988,0,0,1,50.88-59.31L256,216l53.12,16.17A59.988,59.988,0,0,1,360,291.48Z" fill="#a0815c"/></g><path d="M364.69,355.09a112.02,112.02,0,0,1-217.38,0l31.6-6.65A208.749,208.749,0,0,0,204,369.54,329.833,329.833,0,0,0,256,400s46.27-20.72,77.09-51.56Z" fill="#ffdaaa"/></g><g><path d="M503.75,494.03,485,420.4c-.02-.08-.04-.15-.06-.23a87.824,87.824,0,0,0-66.48-61.94l-70.15-14.76C359.98,329.2,368,313.16,368,296v-4.52a68.105,68.105,0,0,0-6.67-29.36A111.264,111.264,0,0,0,366.87,240H372a28.031,28.031,0,0,0,28-28V188a27.75,27.75,0,0,0-2.71-12H480a8,8,0,0,0,8-8,48.051,48.051,0,0,0-48-48H375.73A120,120,0,0,0,136,128v32.29A28.043,28.043,0,0,0,112,188v24a28.031,28.031,0,0,0,28,28h5.13a111.264,111.264,0,0,0,5.54,22.12A68.105,68.105,0,0,0,144,291.48V296c0,17.16,8.02,33.2,19.69,47.47L93.54,358.23a87.824,87.824,0,0,0-66.48,61.94c-.02.08-.04.15-.06.23L8.25,494.03A7.99,7.99,0,0,0,16,504H496a7.99,7.99,0,0,0,7.75-9.97ZM376,136h64a32.058,32.058,0,0,1,30.99,24H376Zm-8,40h4a12.01,12.01,0,0,1,12,12v24a12.01,12.01,0,0,1-12,12h-4ZM144,224h-4a12.01,12.01,0,0,1-12-12V188a12.01,12.01,0,0,1,12-12h4Zm208,0a96.472,96.472,0,0,1-2.33,21.03,68.1,68.1,0,0,0-38.75-20.67l-52.59-16.01a7.877,7.877,0,0,0-4.66,0l-52.59,16.01a68.1,68.1,0,0,0-38.75,20.67A96.472,96.472,0,0,1,160,224V176H352Zm-80-80a8,8,0,0,1,0,16H216V144Zm-54.63-16a24,24,0,0,1,45.26,0ZM152,128a104,104,0,0,1,208,0v32H294.62a23.98,23.98,0,0,0-15.21-30.83A40,40,0,0,0,200,136v24H152Zm8,168v-4.52a52.111,52.111,0,0,1,5.93-24.26,8.192,8.192,0,0,0,.87-1.59,51.723,51.723,0,0,1,37.29-25.55,8.621,8.621,0,0,0,1.12-.25L256,224.36l50.79,15.47a8.621,8.621,0,0,0,1.12.25,51.723,51.723,0,0,1,37.29,25.55,8.192,8.192,0,0,0,.87,1.59A52.111,52.111,0,0,1,352,291.48V296c0,26.23-26.37,50.87-48.49,66.91A329.055,329.055,0,0,1,256,391.16a327.585,327.585,0,0,1-47.31-28.1C186.48,346.98,160,322.29,160,296Zm16.44,61.14c31.02,29.6,73.49,48.91,76.29,50.16a7.988,7.988,0,0,0,6.54,0c2.8-1.25,45.27-20.56,76.29-50.16l19.04,4a104.03,104.03,0,0,1-197.2,0ZM96,488H26.29l16.18-63.54A71.862,71.862,0,0,1,96,374.08Zm304,0H112V370.7l29.67-6.25a120,120,0,0,0,228.66,0L400,370.7Zm16,0V374.08a71.846,71.846,0,0,1,53.53,50.38L485.71,488Z"/><path d="M240,288h32a8,8,0,0,0,0-16H240a8,8,0,0,0,0,16Z"/><circle cx="208" cy="200" r="16"/><circle cx="304" cy="200" r="16"/></g></g></svg>
